<svg xmlns="http://www.w3.org/2000/svg" xmlns:xlink="http://www.w3.org/1999/xlink" width="500" zoomAndPan="magnify" viewBox="0 0 375 374.999991" height="500" preserveAspectRatio="xMidYMid meet" version="1.0"><defs><g/><clipPath id="0ef5424944"><path d="M 110 109.941406 L 265 109.941406 L 265 265.15625 L 110 265.15625 Z M 110 109.941406 " clip-rule="nonzero"/></clipPath><clipPath id="4c76adc9d3"><path d="M 93.335938 169 L 122 169 L 122 177 L 93.335938 177 Z M 93.335938 169 " clip-rule="nonzero"/></clipPath><clipPath id="962cf74197"><path d="M 253 169 L 281.585938 169 L 281.585938 177 L 253 177 Z M 253 169 " clip-rule="nonzero"/></clipPath></defs><g clip-path="url(#0ef5424944)"><path fill="#1a1a1a" d="M 256.890625 221.988281 C 244.214844 247.527344 217.886719 265.082031 187.460938 265.082031 C 157.035156 265.082031 130.707031 247.527344 118.03125 221.988281 L 129.875 221.988281 C 141.59375 241.566406 162.996094 254.675781 187.460938 254.675781 C 211.925781 254.675781 233.328125 241.566406 245.046875 221.988281 Z M 187.460938 109.984375 C 226.621094 109.984375 258.988281 139.058594 264.207031 176.816406 L 253.691406 176.816406 C 248.5625 144.832031 220.867188 120.394531 187.460938 120.394531 C 154.054688 120.394531 126.359375 144.832031 121.230469 176.816406 L 110.714844 176.816406 C 115.933594 139.058594 148.300781 109.984375 187.460938 109.984375 Z M 187.460938 109.984375 " fill-opacity="1" fill-rule="evenodd"/></g><g clip-path="url(#4c76adc9d3)"><path fill="#1a1a1a" d="M 121.226562 176.816406 L 93.335938 176.816406 L 121.226562 169.316406 Z M 121.226562 176.816406 " fill-opacity="1" fill-rule="evenodd"/></g><g clip-path="url(#962cf74197)"><path fill="#1a1a1a" d="M 253.691406 176.816406 L 281.582031 176.816406 L 253.691406 169.316406 Z M 253.691406 176.816406 " fill-opacity="1" fill-rule="evenodd"/></g><path fill="#1a1a1a" d="M 129.875 221.988281 L 101.984375 221.988281 L 129.875 229.488281 Z M 129.875 221.988281 " fill-opacity="1" fill-rule="evenodd"/><path fill="#1a1a1a" d="M 245.046875 221.988281 L 272.941406 221.988281 L 245.046875 229.488281 Z M 245.046875 221.988281 " fill-opacity="1" fill-rule="evenodd"/><path fill="#d41717" d="M 187.460938 168.382812 C 194.0625 168.382812 199.882812 171.726562 203.324219 176.816406 L 195.195312 176.816406 C 192.015625 174.460938 188.082031 173.066406 183.820312 173.066406 C 178.746094 173.066406 174.136719 175.042969 170.710938 178.269531 C 173.972656 172.371094 180.25 168.382812 187.460938 168.382812 " fill-opacity="1" fill-rule="evenodd"/><path fill="#d41717" d="M 215.023438 139.910156 C 216.585938 140.8125 217.125 142.824219 216.222656 144.386719 L 197.714844 176.472656 L 192.039062 173.195312 L 210.546875 141.109375 C 211.449219 139.546875 213.460938 139.007812 215.023438 139.910156 " fill-opacity="1" fill-rule="evenodd"/><path fill="#1a1a1a" d="M 185.902344 119.457031 L 187.667969 119.457031 L 187.667969 130.804688 L 185.902344 130.804688 Z M 185.902344 119.457031 " fill-opacity="1" fill-rule="evenodd"/><path fill="#1a1a1a" d="M 172.992188 132.683594 L 171.285156 133.140625 L 168.347656 122.183594 L 170.058594 121.722656 Z M 172.992188 132.683594 " fill-opacity="1" fill-rule="evenodd"/><path fill="#1a1a1a" d="M 159.300781 138.300781 L 157.769531 139.1875 L 152.101562 129.359375 L 153.632812 128.476562 Z M 159.300781 138.300781 " fill-opacity="1" fill-rule="evenodd"/><path fill="#1a1a1a" d="M 147.527344 147.273438 L 146.273438 148.527344 L 138.261719 140.5 L 139.511719 139.25 Z M 147.527344 147.273438 " fill-opacity="1" fill-rule="evenodd"/><path fill="#1a1a1a" d="M 138.472656 158.988281 L 137.589844 160.519531 L 127.769531 154.847656 L 128.65625 153.316406 Z M 138.472656 158.988281 " fill-opacity="1" fill-rule="evenodd"/><path fill="#1a1a1a" d="M 132.757812 172.648438 L 132.300781 174.359375 L 121.351562 171.421875 L 121.808594 169.714844 Z M 132.757812 172.648438 " fill-opacity="1" fill-rule="evenodd"/><path fill="#1a1a1a" d="M 202.335938 132.789062 L 200.625 132.332031 L 203.5625 121.371094 L 205.269531 121.828125 Z M 202.335938 132.789062 " fill-opacity="1" fill-rule="evenodd"/><path fill="#1a1a1a" d="M 215.992188 138.511719 L 214.460938 137.628906 L 220.125 127.800781 L 221.65625 128.6875 Z M 215.992188 138.511719 " fill-opacity="1" fill-rule="evenodd"/><path fill="#1a1a1a" d="M 227.691406 147.566406 L 226.441406 146.316406 L 234.457031 138.292969 L 235.707031 139.542969 Z M 227.691406 147.566406 " fill-opacity="1" fill-rule="evenodd"/><path fill="#1a1a1a" d="M 236.648438 159.347656 L 235.765625 157.816406 L 245.585938 152.144531 L 246.46875 153.675781 Z M 236.648438 159.347656 " fill-opacity="1" fill-rule="evenodd"/><path fill="#1a1a1a" d="M 242.269531 173.050781 L 241.8125 171.34375 L 252.761719 168.410156 L 253.21875 170.117188 Z M 242.269531 173.050781 " fill-opacity="1" fill-rule="evenodd"/><path fill="#d41717" d="M 215.027344 142.171875 C 227.382812 149.710938 236.417969 162.160156 239.421875 176.816406 L 237.980469 176.816406 C 234.339844 163.1875 225.417969 151.71875 213.542969 144.742188 Z M 187.460938 134.449219 C 195.21875 134.449219 202.582031 136.117188 209.222656 139.109375 L 207.6875 141.773438 C 201.261719 139.003906 194.175781 137.46875 186.734375 137.46875 C 162.277344 137.46875 141.6875 154.035156 135.554688 176.566406 C 140.605469 152.511719 161.925781 134.449219 187.460938 134.449219 Z M 187.460938 134.449219 " fill-opacity="1" fill-rule="evenodd"/><path fill="#d41717" d="M 239.714844 227.699219 C 227.671875 243.371094 208.746094 253.476562 187.460938 253.476562 C 166.175781 253.476562 147.25 243.371094 135.207031 227.699219 C 147.710938 242.117188 166.476562 251.289062 187.460938 251.289062 C 208.445312 251.289062 227.210938 242.117188 239.714844 227.699219 " fill-opacity="1" fill-rule="evenodd"/><g fill="#1a1a1a" fill-opacity="1"><g transform="translate(82.662818, 213.679172)"><g><path d="M 12.109375 0.542969 C 17.738281 0.542969 22.394531 -2.289062 22.394531 -8.152344 C 22.394531 -14.246094 17.195312 -15.527344 13.082031 -16.574219 C 10.167969 -17.273438 7.839844 -17.855469 7.839844 -19.757812 C 7.839844 -21.542969 9.742188 -22.355469 11.644531 -22.355469 C 13.855469 -22.355469 15.796875 -21.269531 15.796875 -18.902344 L 21.582031 -18.902344 C 21.582031 -24.335938 18.050781 -27.675781 11.800781 -27.675781 C 5.785156 -27.675781 1.941406 -24.726562 1.941406 -19.523438 C 1.941406 -13.664062 6.910156 -12.460938 11.023438 -11.449219 C 13.972656 -10.789062 16.457031 -10.207031 16.457031 -8.074219 C 16.457031 -6.054688 14.285156 -4.890625 12.070312 -4.890625 C 9.664062 -4.890625 7.492188 -6.171875 7.492188 -8.773438 L 1.550781 -8.773438 C 1.550781 -2.949219 5.859375 0.542969 12.109375 0.542969 Z M 12.109375 0.542969 "/></g></g></g><g fill="#1a1a1a" fill-opacity="1"><g transform="translate(108.241827, 213.679172)"><g><path d="M 21.8125 -27.171875 L 0.816406 -27.171875 L 0.816406 -21.699219 L 8.382812 -21.699219 L 8.382812 0 L 14.246094 0 L 14.246094 -21.699219 L 21.8125 -21.699219 Z M 21.8125 -27.171875 "/></g></g></g><g fill="#1a1a1a" fill-opacity="1"><g transform="translate(132.462311, 213.679172)"><g><path d="M 18.050781 0 L 24.609375 0 L 18.59375 -10.246094 C 21.621094 -11.722656 23.5625 -14.59375 23.5625 -18.164062 C 23.5625 -23.40625 19.484375 -27.171875 14.050781 -27.171875 L 3.105469 -27.171875 L 3.105469 0 L 8.964844 0 L 8.964844 -9.238281 L 12.730469 -9.238281 Z M 8.964844 -21.734375 L 13.664062 -21.734375 C 16.148438 -21.734375 17.582031 -20.222656 17.582031 -18.203125 C 17.582031 -16.148438 16.148438 -14.671875 13.664062 -14.671875 L 8.964844 -14.671875 Z M 8.964844 -21.734375 "/></g></g></g><g fill="#1a1a1a" fill-opacity="1"><g transform="translate(159.67153, 213.679172)"><g><path d="M 21.117188 0 L 27.519531 0 L 16.535156 -27.171875 L 10.984375 -27.171875 L 0.308594 0 L 6.558594 0 L 8.421875 -5.125 L 19.214844 -5.125 Z M 13.816406 -19.988281 L 17.390625 -10.246094 L 10.246094 -10.246094 Z M 13.816406 -19.988281 "/></g></g></g><g fill="#1a1a1a" fill-opacity="1"><g transform="translate(189.093202, 213.679172)"><g><path d="M 13.351562 -27.171875 L 3.105469 -27.171875 L 3.105469 0 L 13.351562 0 C 21.347656 0 27.132812 -5.707031 27.132812 -13.585938 C 27.132812 -21.464844 21.347656 -27.171875 13.351562 -27.171875 Z M 13.234375 -5.433594 L 8.964844 -5.433594 L 8.964844 -21.699219 L 13.234375 -21.699219 C 17.894531 -21.699219 21.117188 -18.398438 21.117188 -13.585938 C 21.117188 -8.851562 17.894531 -5.433594 13.234375 -5.433594 Z M 13.234375 -5.433594 "/></g></g></g><g fill="#1a1a1a" fill-opacity="1"><g transform="translate(219.407617, 213.679172)"><g><path d="M 21.117188 0 L 27.519531 0 L 16.535156 -27.171875 L 10.984375 -27.171875 L 0.308594 0 L 6.558594 0 L 8.421875 -5.125 L 19.214844 -5.125 Z M 13.816406 -19.988281 L 17.390625 -10.246094 L 10.246094 -10.246094 Z M 13.816406 -19.988281 "/></g></g></g><g fill="#1a1a1a" fill-opacity="1"><g transform="translate(248.829289, 213.679172)"><g><path d="M 8.964844 -5.433594 L 8.964844 -27.171875 L 3.105469 -27.171875 L 3.105469 0 L 19.40625 0 L 19.40625 -5.433594 Z M 8.964844 -5.433594 "/></g></g></g><g fill="#1a1a1a" fill-opacity="1"><g transform="translate(270.643244, 213.679172)"><g><path d="M 8.964844 -5.433594 L 8.964844 -11.023438 L 18.398438 -11.023438 L 18.398438 -16.339844 L 8.964844 -16.339844 L 8.964844 -21.734375 L 19.40625 -21.734375 L 19.40625 -27.171875 L 3.105469 -27.171875 L 3.105469 0 L 19.835938 0 L 19.835938 -5.433594 Z M 8.964844 -5.433594 "/></g></g></g><g fill="#1a1a1a" fill-opacity="1"><g transform="translate(162.570056, 229.445827)"><g><path d="M 4.734375 -4.75 L 1.6875 -4.75 L 1.6875 -3.234375 L 4.421875 -3.234375 L 4.421875 -2.390625 L 1.6875 -2.390625 L 1.6875 -0.84375 L 4.828125 -0.84375 L 4.828125 0 L 0.734375 0 L 0.734375 -5.59375 L 4.734375 -5.59375 Z M 4.734375 -4.75 "/></g></g></g><g fill="#1a1a1a" fill-opacity="1"><g transform="translate(169.818086, 229.445827)"><g><path d="M 2.578125 -5.640625 C 3.296875 -5.640625 3.945312 -5.445312 4.53125 -5.0625 L 4.140625 -4.234375 C 3.566406 -4.578125 3.019531 -4.75 2.5 -4.75 C 2.21875 -4.75 1.992188 -4.695312 1.828125 -4.59375 C 1.671875 -4.5 1.59375 -4.359375 1.59375 -4.171875 C 1.59375 -3.984375 1.664062 -3.820312 1.8125 -3.6875 C 1.96875 -3.5625 2.15625 -3.46875 2.375 -3.40625 C 2.601562 -3.34375 2.847656 -3.265625 3.109375 -3.171875 C 3.367188 -3.078125 3.609375 -2.976562 3.828125 -2.875 C 4.054688 -2.769531 4.242188 -2.609375 4.390625 -2.390625 C 4.535156 -2.171875 4.609375 -1.898438 4.609375 -1.578125 C 4.609375 -1.085938 4.410156 -0.695312 4.015625 -0.40625 C 3.628906 -0.113281 3.125 0.03125 2.5 0.03125 C 2.070312 0.03125 1.65625 -0.046875 1.25 -0.203125 C 0.851562 -0.367188 0.503906 -0.585938 0.203125 -0.859375 L 0.609375 -1.671875 C 0.898438 -1.410156 1.210938 -1.207031 1.546875 -1.0625 C 1.890625 -0.925781 2.210938 -0.859375 2.515625 -0.859375 C 2.847656 -0.859375 3.101562 -0.914062 3.28125 -1.03125 C 3.46875 -1.15625 3.5625 -1.320312 3.5625 -1.53125 C 3.5625 -1.726562 3.484375 -1.890625 3.328125 -2.015625 C 3.179688 -2.148438 2.992188 -2.25 2.765625 -2.3125 C 2.546875 -2.375 2.304688 -2.445312 2.046875 -2.53125 C 1.785156 -2.613281 1.539062 -2.703125 1.3125 -2.796875 C 1.09375 -2.898438 0.90625 -3.0625 0.75 -3.28125 C 0.601562 -3.5 0.53125 -3.765625 0.53125 -4.078125 C 0.53125 -4.554688 0.71875 -4.9375 1.09375 -5.21875 C 1.46875 -5.5 1.960938 -5.640625 2.578125 -5.640625 Z M 2.578125 -5.640625 "/></g></g></g><g fill="#1a1a1a" fill-opacity="1"><g transform="translate(176.794112, 229.445827)"><g><path d="M 4.5625 -4.75 L 2.78125 -4.75 L 2.78125 0 L 1.84375 0 L 1.84375 -4.75 L 0.078125 -4.75 L 0.078125 -5.59375 L 4.5625 -5.59375 Z M 4.5625 -4.75 "/></g></g></g><g fill="#1a1a1a" fill-opacity="1"><g transform="translate(183.426135, 229.445827)"><g><path d="M 0.515625 -0.828125 C 0.609375 -0.929688 0.726562 -0.984375 0.875 -0.984375 C 1.019531 -0.984375 1.140625 -0.929688 1.234375 -0.828125 C 1.328125 -0.734375 1.375 -0.613281 1.375 -0.46875 C 1.375 -0.3125 1.328125 -0.179688 1.234375 -0.078125 C 1.140625 0.0234375 1.019531 0.078125 0.875 0.078125 C 0.726562 0.078125 0.609375 0.0234375 0.515625 -0.078125 C 0.421875 -0.179688 0.375 -0.3125 0.375 -0.46875 C 0.375 -0.613281 0.421875 -0.734375 0.515625 -0.828125 Z M 0.515625 -0.828125 "/></g></g></g><g fill="#1a1a1a" fill-opacity="1"><g transform="translate(187.17014, 229.445827)"><g><path d="M 2.296875 -5.640625 C 2.835938 -5.640625 3.269531 -5.507812 3.59375 -5.25 C 3.925781 -5 4.09375 -4.660156 4.09375 -4.234375 C 4.09375 -3.742188 3.75 -3.128906 3.0625 -2.390625 L 1.609375 -0.84375 L 4.34375 -0.84375 L 4.34375 0 L 0.359375 0 L 0.359375 -0.6875 L 2.421875 -2.90625 C 2.878906 -3.363281 3.109375 -3.757812 3.109375 -4.09375 C 3.109375 -4.320312 3.023438 -4.5 2.859375 -4.625 C 2.691406 -4.75 2.460938 -4.8125 2.171875 -4.8125 C 1.660156 -4.8125 1.148438 -4.578125 0.640625 -4.109375 L 0.265625 -4.84375 C 0.921875 -5.375 1.597656 -5.640625 2.296875 -5.640625 Z M 2.296875 -5.640625 "/></g></g></g><g fill="#1a1a1a" fill-opacity="1"><g transform="translate(193.874164, 229.445827)"><g><path d="M 2.765625 -5.625 C 3.523438 -5.625 4.109375 -5.378906 4.515625 -4.890625 C 4.929688 -4.398438 5.140625 -3.703125 5.140625 -2.796875 C 5.140625 -1.890625 4.929688 -1.191406 4.515625 -0.703125 C 4.109375 -0.210938 3.523438 0.03125 2.765625 0.03125 C 1.992188 0.03125 1.40625 -0.210938 1 -0.703125 C 0.59375 -1.191406 0.390625 -1.890625 0.390625 -2.796875 C 0.390625 -3.703125 0.59375 -4.398438 1 -4.890625 C 1.40625 -5.378906 1.992188 -5.625 2.765625 -5.625 Z M 2.765625 -4.875 C 1.828125 -4.875 1.359375 -4.179688 1.359375 -2.796875 C 1.359375 -1.410156 1.828125 -0.71875 2.765625 -0.71875 C 3.703125 -0.71875 4.171875 -1.410156 4.171875 -2.796875 C 4.171875 -4.179688 3.703125 -4.875 2.765625 -4.875 Z M 2.765625 -4.875 "/></g></g></g><g fill="#1a1a1a" fill-opacity="1"><g transform="translate(201.402192, 229.445827)"><g><path d="M 2.296875 -5.640625 C 2.835938 -5.640625 3.269531 -5.507812 3.59375 -5.25 C 3.925781 -5 4.09375 -4.660156 4.09375 -4.234375 C 4.09375 -3.742188 3.75 -3.128906 3.0625 -2.390625 L 1.609375 -0.84375 L 4.34375 -0.84375 L 4.34375 0 L 0.359375 0 L 0.359375 -0.6875 L 2.421875 -2.90625 C 2.878906 -3.363281 3.109375 -3.757812 3.109375 -4.09375 C 3.109375 -4.320312 3.023438 -4.5 2.859375 -4.625 C 2.691406 -4.75 2.460938 -4.8125 2.171875 -4.8125 C 1.660156 -4.8125 1.148438 -4.578125 0.640625 -4.109375 L 0.265625 -4.84375 C 0.921875 -5.375 1.597656 -5.640625 2.296875 -5.640625 Z M 2.296875 -5.640625 "/></g></g></g><g fill="#1a1a1a" fill-opacity="1"><g transform="translate(208.106216, 229.445827)"><g><path d="M 2.09375 -3.265625 L 2.390625 -3.234375 C 2.867188 -3.191406 3.25 -3.039062 3.53125 -2.78125 C 3.8125 -2.519531 3.953125 -2.171875 3.953125 -1.734375 C 3.953125 -1.203125 3.765625 -0.769531 3.390625 -0.4375 C 3.023438 -0.113281 2.535156 0.046875 1.921875 0.046875 C 1.578125 0.046875 1.234375 -0.00390625 0.890625 -0.109375 C 0.554688 -0.222656 0.269531 -0.375 0.03125 -0.5625 L 0.421875 -1.34375 C 0.835938 -0.945312 1.316406 -0.75 1.859375 -0.75 C 2.222656 -0.75 2.507812 -0.832031 2.71875 -1 C 2.925781 -1.175781 3.03125 -1.414062 3.03125 -1.71875 C 3.03125 -2.007812 2.925781 -2.234375 2.71875 -2.390625 C 2.519531 -2.546875 2.226562 -2.625 1.84375 -2.625 L 1.078125 -2.625 L 1.078125 -3.1875 L 2.53125 -4.75 L 0.28125 -4.75 L 0.28125 -5.59375 L 3.703125 -5.59375 L 3.703125 -5 Z M 2.09375 -3.265625 "/></g></g></g></svg>